<?xml version="1.0" standalone="no"?><!DOCTYPE svg PUBLIC "-//W3C//DTD SVG 1.1//EN" "http://www.w3.org/Graphics/SVG/1.1/DTD/svg11.dtd"><svg t="1551853831025" class="icon" style="" viewBox="0 0 1024 1024" version="1.1" xmlns="http://www.w3.org/2000/svg" p-id="1420" xmlns:xlink="http://www.w3.org/1999/xlink" width="64" height="64"><defs><style type="text/css"></style></defs><path d="M473.2 40.12a431.6 431.6 0 0 0-168 829.07 431.11 431.11 0 0 0 407-38.3l141.59 141.53a80.73 80.73 0 0 0 114.16 0 89.27 89.27 0 0 0 0-126.25L832.48 710.69A431.37 431.37 0 0 0 473.2 40.12z" fill="#4A4A4A" p-id="1421"></path><path d="M686.172 743.668l59.093-59.093a3.23 3.23 0 0 1 4.568 0l189.858 189.858a49.27 49.27 0 0 1 0 69.679 40.73 40.73 0 0 1-57.615 0.028L686.208 748.27a3.23 3.23 0 0 1 0-4.568z" fill="#FF922A" p-id="1422"></path><path d="M767.41 702.19l-64.35 62.93 48.8 48.8c10.69-5.68 22-13 30.84-21.8 12.69-12.69 23.84-28.92 32.08-42.55z" fill="#CC5B1D" p-id="1423"></path><path d="M473.2 471.62m-391.5 0a391.5 391.5 0 1 0 783 0 391.5 391.5 0 1 0-783 0Z" fill="#00F5FF" p-id="1424"></path><path d="M457.7 590.12l97 18s248.5-224.5 95.5-341.5-342-117-342-117l-198.4 220s12.4 301 150.4 390 406.5-14.5 406.5-14.5-240 13-332-86c-104.64-112.6-107-219-56.5-295.5 22.85-34.61 69.5-64.5 125.5-64.5 111 0 150 95 150 150 0 105-96 141-96 141z" fill="#FBFF94" p-id="1425"></path><path d="M864.7 471.62c0-133.17-66.49-250.8-168.08-321.53 47 66.63 105.08 178 105.08 322 0 153-147 288-304 288-172.5 0-306-142-306-306 0-163 132-226 231-226 95 0 186 83 186 190 0 106.46-71 172-143 172-23 0-89.07-13.2-87-67 2-52 82-58 19-102-36.6-25.56-82.87 104.78-29 178 24 32.66 46 54 128 54 90.89 0 231-107 231-281 0-118-90-288-287-288q-11.76 0-23.19-0.06C227.67 111.1 81.7 274.31 81.7 471.62c0 216.22 175.28 391.5 391.5 391.5s391.5-175.28 391.5-391.5z" fill="#FF7FE6" p-id="1426"></path><path d="M703.7 335.12m-34 0a34 34 0 1 0 68 0 34 34 0 1 0-68 0Z" fill="#FFFFFF" p-id="1427"></path><path d="M653.73 285.13a25 25 0 0 1-21.6-12.38c-0.18-0.29-22.83-37.78-66.83-62.92-35.25-20.14-68.84-20.71-69.17-20.71a25 25 0 0 1 0-50c1.89 0 46.75 0.31 94 27.29 56 32 84 79.09 85.17 81.08a25 25 0 0 1-21.55 37.63z" fill="#FFFFFF" p-id="1428"></path></svg>